HIERARCHY
ROOT hip
{
  OFFSET -28.2227 41.0666 143.801
  CHANNELS 6 Xposition Yposition Zposition Zrotation Xrotation Yrotation
  JOINT abdomen
  {
    OFFSET 0 6.09653 0.699602
    CHANNELS 3 Zrotation Xrotation Yrotation
    JOINT chest
    {
      OFFSET 0 2.49857 -0.699602
      CHANNELS 3 Zrotation Xrotation Yrotation
      JOINT lCollar
      {
        OFFSET 1.49915 11.2936 -1.69903
        CHANNELS 3 Zrotation Xrotation Yrotation
        JOINT lShldr
        {
          OFFSET 4.89721 -0.299833 0.799545
          CHANNELS 3 Zrotation Xrotation Yrotation
          JOINT lForeArm
          {
            OFFSET 12.4216 -1.19922 0.931564
            CHANNELS 3 Zrotation Xrotation Yrotation
            JOINT lHand
            {
              OFFSET 9.86568 0.0998482 3.66582
              CHANNELS 3 Zrotation Xrotation Yrotation
              JOINT lRing1
              {
                OFFSET 3.39806 0.399773 0.299829
                CHANNELS 3 Zrotation Xrotation Yrotation
                JOINT lRing2
                {
                  OFFSET 1.29926 -0.199886 0.399772
                  CHANNELS 3 Zrotation Xrotation Yrotation
                  End Site
                  {
                    OFFSET 0.899489 -0.0999425 0.199886
                  }
                }
              }
              JOINT lThumb1
              {
                OFFSET 0.399772 -0.399773 1.19932
                CHANNELS 3 Zrotation Xrotation Yrotation
                JOINT lThumb2
                {
                  OFFSET 0.99813 0 1.47145
                  CHANNELS 3 Zrotation Xrotation Yrotation
                  End Site
                  {
                    OFFSET 0.97784 -0.27884 0.829828
                  }
                }
              }
              JOINT lMid1
              {
                OFFSET 2.99829 0.499714 1.09937
                CHANNELS 3 Zrotation Xrotation Yrotation
                JOINT lMid2
                {
                  OFFSET 1.45827 -0.0999388 0.600149
                  CHANNELS 3 Zrotation Xrotation Yrotation
                  End Site
                  {
                    OFFSET 1.04031 -0.0999473 0.399282
                  }
                }
              }
              JOINT lIndex1
              {
                OFFSET 2.69846 0.399775 2.09881
                CHANNELS 3 Zrotation Xrotation Yrotation
                JOINT lIndex2
                {
                  OFFSET 1.33823 -0.200884 0.6843
                  CHANNELS 3 Zrotation Xrotation Yrotation
                  End Site
                  {
                    OFFSET 0.760567 0.00099574 0.415074
                  }
                }
              }
              JOINT lPinky1
              {
                OFFSET 3.29812 0.0999421 -0.399772
                CHANNELS 3 Zrotation Xrotation Yrotation
                JOINT lPinky2
                {
                  OFFSET 0.899488 -0.0999427 0
                  CHANNELS 3 Zrotation Xrotation Yrotation
                  End Site
                  {
                    OFFSET 0.999427 -0.0999418 0
                  }
                }
              }
            }
          }
        }
      }
      JOINT rCollar
      {
        OFFSET -1.49915 11.2936 -1.69903
        CHANNELS 3 Zrotation Xrotation Yrotation
        JOINT rShldr
        {
          OFFSET -4.89721 -0.299829 0.799545
          CHANNELS 3 Zrotation Xrotation Yrotation
          JOINT rForeArm
          {
            OFFSET -12.4216 -1.19922 0.931564
            CHANNELS 3 Zrotation Xrotation Yrotation
            JOINT rHand
            {
              OFFSET -9.86568 0.0998477 3.66582
              CHANNELS 3 Zrotation Xrotation Yrotation
              JOINT rPinky1
              {
                OFFSET -3.29812 0.0999423 -0.399772
                CHANNELS 3 Zrotation Xrotation Yrotation
                JOINT rPinky2
                {
                  OFFSET -0.899492 -0.0999405 0
                  CHANNELS 3 Zrotation Xrotation Yrotation
                  End Site
                  {
                    OFFSET -0.999429 -0.0999421 0
                  }
                }
              }
              JOINT rRing1
              {
                OFFSET -3.39807 0.399775 0.299829
                CHANNELS 3 Zrotation Xrotation Yrotation
                JOINT rRing2
                {
                  OFFSET -1.29926 -0.199888 0.399772
                  CHANNELS 3 Zrotation Xrotation Yrotation
                  End Site
                  {
                    OFFSET -0.899487 -0.0999402 0.199886
                  }
                }
              }
              JOINT rMid1
              {
                OFFSET -2.99829 0.499717 1.09937
                CHANNELS 3 Zrotation Xrotation Yrotation
                JOINT rMid2
                {
                  OFFSET -1.45827 -0.0999391 0.600149
                  CHANNELS 3 Zrotation Xrotation Yrotation
                  End Site
                  {
                    OFFSET -1.0403 -0.0999474 0.399282
                  }
                }
              }
              JOINT rIndex1
              {
                OFFSET -2.69847 0.399775 2.09881
                CHANNELS 3 Zrotation Xrotation Yrotation
                JOINT rIndex2
                {
                  OFFSET -1.33823 -0.200883 0.6843
                  CHANNELS 3 Zrotation Xrotation Yrotation
                  End Site
                  {
                    OFFSET -0.760569 0.00099747 0.415074
                  }
                }
              }
              JOINT rThumb1
              {
                OFFSET -0.399773 -0.39977 1.19932
                CHANNELS 3 Zrotation Xrotation Yrotation
                JOINT rThumb2
                {
                  OFFSET -0.998132 0 1.47145
                  CHANNELS 3 Zrotation Xrotation Yrotation
                  End Site
                  {
                    OFFSET -0.977841 -0.278837 0.829828
                  }
                }
              }
            }
          }
        }
      }
      JOINT neck
      {
        OFFSET 0 12.4929 -0.499715
        CHANNELS 3 Zrotation Xrotation Yrotation
        JOINT head
        {
          OFFSET 0 3.59795 0.299829
          CHANNELS 3 Zrotation Xrotation Yrotation
          JOINT rightEye
          {
            OFFSET -1.19932 3.69789 3.19818
            CHANNELS 3 Zrotation Xrotation Yrotation
            End Site
            {
              OFFSET 0 0 0
            }
          }
          JOINT leftEye
          {
            OFFSET 1.19932 3.69789 3.19818
            CHANNELS 3 Zrotation Xrotation Yrotation
            End Site
            {
              OFFSET 0 0 0
            }
          }
        }
      }
    }
  }
  JOINT rButtock
  {
    OFFSET -4.19761 -0.599656 -0.299829
    CHANNELS 3 Zrotation Xrotation Yrotation
    JOINT rThigh
    {
      OFFSET 0 -1.49915 0
      CHANNELS 3 Zrotation Xrotation Yrotation
      JOINT rShin
      {
        OFFSET 0.699602 -17.6899 -1.09938
        CHANNELS 3 Zrotation Xrotation Yrotation
        JOINT rFoot
        {
          OFFSET -0.699602 -18.0897 -0.699602
          CHANNELS 3 Zrotation Xrotation Yrotation
          End Site
          {
            OFFSET 0 -2.09881 5.59681
          }
        }
      }
    }
  }
  JOINT lButtock
  {
    OFFSET 4.19761 -0.599656 -0.299829
    CHANNELS 3 Zrotation Xrotation Yrotation
    JOINT lThigh
    {
      OFFSET 0 -1.49914 0
      CHANNELS 3 Zrotation Xrotation Yrotation
      JOINT lShin
      {
        OFFSET -0.699602 -17.6899 -1.09937
        CHANNELS 3 Zrotation Xrotation Yrotation
        JOINT lFoot
        {
          OFFSET 0.699602 -18.0897 -0.699602
          CHANNELS 3 Zrotation Xrotation Yrotation
          End Site
          {
            OFFSET 0 -2.0988 5.59681
          }
        }
      }
    }
  }
}
MOTION
Frames:	6
Frame Time:	0.0333333
-16.1211 40.9518 146.789 5.61339 -5.92305 13.6256 -0.00975517 -0.00975351 -0.00975351 -0.00077861 0.035469 -0.468261 -25.3481 3.18121 -4.04306 165.34 82.3124 -179.261 67.7219 -41.6471 -81.3113 12.1253 -3.60876 8.54011 -0.011828 -0.0109821 -0.00813738 -2.42855 -0.502369 -4.43241 4.42559e-005 -0.0456281 -0.00980762 9.41156 -7.94154 0.625637 -0.0134437 -0.00969969 -0.00912502 0.204764 0.414792 -1.45043 -0.0140808 -0.0101059 -0.00835251 -8.62306 -0.0231752 1.79819 -0.00991999 -0.0110122 -0.00833245 -0.629806 -0.00995832 0.0010087 2.09263 -0.15217 0.843523 75.684 82.5229 -44.8306 -64.5359 -22.036 77.8383 -21.2373 -12.3116 19.9801 -0.00964467 -0.00830612 -0.0110374 0.629524 -0.00953166 -0.000952604 -0.00762335 -0.00787027 -0.0111471 2.42704 -0.497593 4.4329 -0.00609458 -0.00836157 -0.0103548 -0.219775 0.404223 1.44943 -0.00535787 -0.0071651 -0.0109553 8.61108 -0.00190224 -1.79828 4.33991e-005 -0.0456274 -0.00979263 -9.39785 -7.91692 -0.6638 -3.82314 -0.0426947 0.470123 9.53147 10.2858 -2.28466 0 0 0 0 0 0 -0.00975517 -0.00969887 -0.00983547 -18.1085 -6.68414 -2.79921 3.50468 29.644 -11.4176 8.32073 -11.5398 0.974217 -0.00975517 -0.00983547 -0.00969887 -12.2663 -5.06435 -10.9935 -0.914258 23.4904 3.77262 5.94463 -10.3545 -0.092684 
-16.0474 40.9777 146.862 5.5431 -5.66154 13.915 -0.00975517 -0.00975351 -0.00975351 -0.00088771 0.0354691 -0.445834 -25.1381 3.20041 -4.2305 161.259 82.3125 -174.936 66.8143 -41.8764 -82.003 11.1394 -3.33539 8.3996 -0.011828 -0.0109821 -0.00813738 -2.42855 -0.502369 -4.43241 4.42559e-005 -0.0456281 -0.00980762 9.41156 -7.94154 0.625637 -0.0134437 -0.00969969 -0.00912502 0.204764 0.414792 -1.45043 -0.0140808 -0.0101059 -0.00835251 -8.62306 -0.0231752 1.79819 -0.00991999 -0.0110122 -0.00833245 -0.629806 -0.00995832 0.0010087 2.18127 -0.145081 0.818871 73.8808 83.1455 -43.0372 -64.2666 -22.0627 77.9626 -21.3411 -12.2434 19.4315 -0.00964467 -0.00830612 -0.0110374 0.629524 -0.00953166 -0.000952604 -0.00762335 -0.00787027 -0.0111471 2.42704 -0.497593 4.4329 -0.00609458 -0.00836157 -0.0103548 -0.219775 0.404223 1.44943 -0.00535787 -0.0071651 -0.0109553 8.61111 -0.00190224 -1.79828 4.33991e-005 -0.0456274 -0.00979263 -9.39785 -7.91692 -0.6638 -3.78605 -0.0409662 0.448953 8.59071 9.02761 -5.59164 0 0 0 0 0 0 -0.00975517 -0.00969887 -0.00983547 -18.1825 -6.50381 -3.42243 3.26698 29.2536 -11.1085 8.54273 -11.2866 0.959045 -0.00975517 -0.00983547 -0.00969887 -12.3153 -4.91251 -11.0331 -0.780345 22.9655 3.43613 6.04364 -10.1709 -0.090129 
-15.9803 41.018 146.938 5.43333 -5.36154 14.1864 -0.00975517 -0.00975351 -0.00975351 -0.000997182 0.0354692 -0.417089 -24.9099 3.20583 -4.37264 158.825 82.6256 -172.294 65.8666 -42.049 -82.7188 10.0804 -3.07876 7.78909 -0.011828 -0.0109821 -0.00813738 -2.42855 -0.502369 -4.43241 4.42559e-005 -0.0456281 -0.00980762 9.41156 -7.94154 0.625637 -0.0134437 -0.00969969 -0.00912502 0.204764 0.414792 -1.45043 -0.0140808 -0.0101059 -0.00835251 -8.62306 -0.0231752 1.79819 -0.00991999 -0.0110122 -0.00833245 -0.629806 -0.00995832 0.0010087 2.27849 -0.135135 0.858019 72.067 83.4404 -41.2205 -63.9811 -22.0595 78.0843 -21.3381 -12.177 19.1582 -0.00964467 -0.00830612 -0.0110374 0.629524 -0.00953166 -0.000952604 -0.00762335 -0.00787027 -0.0111471 2.42704 -0.497593 4.4329 -0.00609458 -0.00836157 -0.0103548 -0.219775 0.404223 1.44943 -0.00535787 -0.0071651 -0.0109553 8.61115 -0.00190224 -1.79828 4.33991e-005 -0.0456274 -0.00979263 -9.39785 -7.91692 -0.6638 -3.72853 -0.0387782 0.422651 7.495 7.39201 -10.5455 0 0 0 0 0 0 -0.00975517 -0.00969887 -0.00983547 -18.2185 -6.25815 -4.24086 2.9322 28.676 -10.5819 8.5946 -10.9899 0.927798 -0.00975517 -0.00983547 -0.00969887 -12.2903 -4.68909 -10.9477 -0.612279 22.2103 2.98083 6.1336 -9.88364 -0.0898913 
-15.9304 41.0584 147.005 5.28366 -5.0115 14.3818 -0.00975517 -0.00975351 -0.00975351 -0.00110446 0.0354694 -0.382529 -24.7085 3.20699 -4.48481 156.025 83.1109 -169.281 64.7857 -42.197 -83.5327 8.92755 -2.79366 7.02323 -0.011828 -0.0109821 -0.00813738 -2.42855 -0.502369 -4.43241 4.42559e-005 -0.0456281 -0.00980762 9.41156 -7.94154 0.625637 -0.0134437 -0.00969969 -0.00912502 0.204764 0.414792 -1.45043 -0.0140808 -0.0101059 -0.00835251 -8.62306 -0.0231752 1.79819 -0.00991999 -0.0110122 -0.00833245 -0.629806 -0.00995832 0.0010087 2.31633 -0.127764 0.976324 70.2292 83.3801 -39.3304 -63.6908 -21.9895 78.1857 -21.2872 -12.1342 19.1035 -0.00964467 -0.00830612 -0.0110374 0.629524 -0.00953166 -0.000952604 -0.00762335 -0.00787027 -0.0111471 2.42704 -0.497593 4.4329 -0.00609458 -0.00836157 -0.0103548 -0.219775 0.404223 1.44943 -0.00535787 -0.0071651 -0.0109553 8.61118 -0.00190224 -1.79828 4.33991e-005 -0.0456274 -0.00979263 -9.39785 -7.91692 -0.6638 -3.65802 -0.0362288 0.391465 6.64787 5.72565 -14.6033 0 0 0 0 0 0 -0.00975517 -0.00969887 -0.00983547 -18.1895 -6.13153 -4.98837 2.62051 28.1063 -10.053 8.63781 -10.6838 0.894731 -0.00975517 -0.00983547 -0.00969887 -12.2161 -4.5748 -10.8723 -0.475614 21.4825 2.5867 6.19552 -9.59104 -0.0914666 
-15.8977 41.0899 147.064 5.09401 -4.6414 14.4844 -0.00975517 -0.00975351 -0.00975351 -0.00120559 0.0354695 -0.344908 -24.5687 3.21958 -4.61373 153.246 83.7792 -166.259 63.5906 -42.3686 -84.4454 7.58701 -2.44591 6.06661 -0.011828 -0.0109821 -0.00813738 -2.42855 -0.502369 -4.43241 4.42559e-005 -0.0456281 -0.00980762 9.41156 -7.94154 0.625637 -0.0134437 -0.00969969 -0.00912502 0.204764 0.414792 -1.45043 -0.0140808 -0.0101059 -0.00835251 -8.62306 -0.0231752 1.79819 -0.00991999 -0.0110122 -0.00833245 -0.629806 -0.00995832 0.0010087 2.26397 -0.127937 1.11286 68.4318 83.1957 -37.4189 -63.394 -21.8388 78.2615 -21.2581 -12.1349 19.1792 -0.00964467 -0.00830612 -0.0110374 0.629524 -0.00953166 -0.000952604 -0.00762335 -0.00787027 -0.0111471 2.42704 -0.497593 4.4329 -0.00609458 -0.00836157 -0.0103548 -0.219775 0.404223 1.44943 -0.00535787 -0.0071651 -0.0109553 8.61122 -0.00190224 -1.79828 4.33991e-005 -0.0456274 -0.00979263 -9.39785 -7.91692 -0.6638 -3.56885 -0.0334245 0.357073 6.49637 4.52735 -15.8287 0 0 0 0 0 0 -0.00975517 -0.00969887 -0.00983547 -18.1043 -6.15975 -5.63875 2.37603 27.6345 -9.60131 8.66231 -10.4245 0.865915 -0.00975517 -0.00983547 -0.00969887 -12.0926 -4.63613 -10.8493 -0.394918 20.9796 2.34258 6.21758 -9.40097 -0.0934543 
-15.8718 41.1066 147.125 4.89426 -4.29137 14.5394 -0.00975517 -0.00975351 -0.00975351 -0.00129478 0.0354697 -0.309939 -24.4898 3.24839 -4.77955 151.456 84.5473 -164.251 62.5034 -42.5314 -85.2878 6.29943 -2.09328 5.07291 -0.011828 -0.0109821 -0.00813738 -2.42855 -0.502369 -4.43241 4.42559e-005 -0.0456281 -0.00980762 9.41156 -7.94154 0.625637 -0.0134437 -0.00969969 -0.00912502 0.204764 0.414792 -1.45043 -0.0140808 -0.0101059 -0.00835251 -8.62306 -0.0231752 1.79819 -0.00991999 -0.0110122 -0.00833245 -0.629806 -0.00995832 0.0010087 2.14125 -0.135831 1.21599 66.4057 83.055 -35.193 -63.119 -21.6109 78.2997 -21.2938 -12.1815 19.2877 -0.00964467 -0.00830612 -0.0110374 0.629524 -0.00953166 -0.000952604 -0.00762335 -0.00787027 -0.0111471 2.42704 -0.497593 4.4329 -0.00609458 -0.00836157 -0.0103548 -0.219775 0.404223 1.44943 -0.00535787 -0.0071651 -0.0109553 8.61125 -0.00190224 -1.79828 4.33991e-005 -0.0456274 -0.00979263 -9.39785 -7.91692 -0.6638 -3.47017 -0.0307526 0.323872 6.93729 3.89219 -14.5849 0 0 0 0 0 0 -0.00975517 -0.00969887 -0.00983547 -18.0169 -6.28413 -6.08323 2.23435 27.3477 -9.31105 8.67365 -10.2678 0.848263 -0.00975517 -0.00983547 -0.00969887 -11.9862 -4.81885 -10.9048 -0.361334 20.7518 2.24535 6.24147 -9.3554 -0.0931351 
